<svg width="19" height="13" viewBox="0 0 19 13" fill="none" xmlns="http://www.w3.org/2000/svg">
<mask id="path-1-inside-1_575_706" fill="white">
<path d="M17.0271 0.599936C17.3501 0.243766 17.9095 0.242611 18.2339 0.597443C18.5181 0.908209 18.5192 1.38416 18.2364 1.6962L9.44861 11.3937C7.86134 13.1453 5.10947 13.1458 3.52155 11.3948L0.969747 8.58095C0.686528 8.26865 0.686529 7.7924 0.969748 7.48009C1.29494 7.12151 1.85846 7.12151 2.18366 7.48009L4.03119 9.51736C5.34625 10.9675 7.62512 10.9675 8.94017 9.51736L17.0271 0.599936Z"/>
</mask>
<path d="M17.0271 0.599936C17.3501 0.243766 17.9095 0.242611 18.2339 0.597443C18.5181 0.908209 18.5192 1.38416 18.2364 1.6962L9.44861 11.3937C7.86134 13.1453 5.10947 13.1458 3.52155 11.3948L0.969747 8.58095C0.686528 8.26865 0.686529 7.7924 0.969748 7.48009C1.29494 7.12151 1.85846 7.12151 2.18366 7.48009L4.03119 9.51736C5.34625 10.9675 7.62512 10.9675 8.94017 9.51736L17.0271 0.599936Z" fill="white"/>
<path d="M2.18366 7.48009L-0.0386195 9.49541L2.18366 7.48009ZM0.969747 8.58095L-1.25253 10.5963L0.969747 8.58095ZM0.969748 7.48009L-1.25253 5.46478L0.969748 7.48009ZM3.52155 11.3948L1.29927 13.4101L3.52155 11.3948ZM18.2364 1.6962L20.4594 3.71069L18.2364 1.6962ZM17.0271 0.599936L14.8048 -1.41538L17.0271 0.599936ZM16.0134 -0.318285L7.22558 9.37921L11.6716 13.4082L20.4594 3.71069L16.0134 -0.318285ZM5.74382 9.37949L3.19202 6.56563L-1.25253 10.5963L1.29927 13.4101L5.74382 9.37949ZM-0.0386195 9.49541L1.80892 11.5327L6.25347 7.50205L4.40593 5.46478L-0.0386195 9.49541ZM11.1624 11.5327L19.2494 2.61525L14.8048 -1.41538L6.7179 7.50205L11.1624 11.5327ZM1.80892 11.5327C4.31461 14.2957 8.65675 14.2957 11.1624 11.5327L6.7179 7.50205C6.59349 7.63924 6.37789 7.63924 6.25347 7.50205L1.80892 11.5327ZM3.19202 9.49541C2.32657 10.4497 0.826832 10.4497 -0.0386195 9.49541L4.40593 5.46478C2.8901 3.79328 0.263305 3.79328 -1.25253 5.46478L3.19202 9.49541ZM3.19202 6.56563C3.94577 7.39679 3.94577 8.66426 3.19202 9.49541L-1.25253 5.46478C-2.57271 6.92054 -2.57272 9.1405 -1.25253 10.5963L3.19202 6.56563ZM7.22558 9.37921C6.82877 9.81711 6.1408 9.81724 5.74382 9.37949L1.29927 13.4101C4.07813 16.4743 8.89391 16.4735 11.6716 13.4082L7.22558 9.37921ZM16.02 2.62192C15.2596 1.79034 15.2567 0.516718 16.0134 -0.318285L20.4594 3.71069C21.7817 2.25161 21.7766 0.0260815 20.4479 -1.42704L16.02 2.62192ZM20.4479 -1.42704C18.9307 -3.0862 16.3152 -3.0808 14.8048 -1.41538L19.2494 2.61525C18.3851 3.56834 16.8883 3.57143 16.02 2.62192L20.4479 -1.42704Z" fill="white" mask="url(#path-1-inside-1_575_706)"/>
</svg>
